<?xml version="1.0" encoding="UTF-8"?>
<svg xmlns="http://www.w3.org/2000/svg" version="1.1" viewBox="0 0 507.06 231.32">
  <defs>
    <style>
      .cls-1 {
        fill: #231f20;
      }
    </style>
  </defs>
  <!-- Generator: Adobe Illustrator 28.7.5, SVG Export Plug-In . SVG Version: 1.2.0 Build 176)  -->
  <g>
    <g id="Layer_1">
      <g>
        <path d="M130.83,133.46c15.5,31.48,41.26,52.07,78.27,57.54,14.52,2.15,20.63-3.52,20.82-18.14.1-7.63.04-15.33,1.04-22.87,1.88-14.17,15.55-25.48,30.38-25.88,14.18-.39,28.86,11.18,31.32,25.06.65,3.67.1,7.56.1,11.34.46.24.91.48,1.37.73,3.91-5.14,7.86-10.25,11.72-15.44.98-1.32,1.76-2.81,2.51-4.28,1.58-3.09,4.48-6.34,4.21-9.28-.24-2.61-4.08-4.85-6.25-7.32-2.04-2.33-4.73-4.5-2.69-8.22,1.97-3.61,6.06-4.45,9.02-1.27,6.88,7.41,15.16,10.22,25.1,8.98,3.22-.4,5.94,1.51,5.82,4.65-.08,2.04-2.08,5.29-3.8,5.73-3.7.95-7.8.76-11.68.4-2.87-.26-4.23.1-5.64,3.05-16.74,34.99-44.14,56.96-82.38,63.46-50.67,8.61-98.83-19.14-118.63-62.83-1.52-3.35-2.96-4.3-6.71-3.45-3.24.73-6.85-.02-10.29-.3-3.92-.32-5.45-3.34-4.29-6.29.8-2.03,4.14-4.6,6.04-4.38,9.85,1.14,17.93-1.62,24.58-8.89,2.39-2.61,5.16-2.94,7.85-.55,2.71,2.41,2.59,5.12.36,7.91-2.48,3.1-4.88,6.28-8.17,10.54Z"/>
        <path d="M334.68,87v-47.67c-1.74-.08-3.35-.07-4.94-.25-3.44-.4-5.77-2.51-5.56-5.83.2-3.17,2.23-5.28,6.04-5.17,12.12.35,24.45-.8,36.34,1,24.28,3.68,34.84,33.1,21.29,54.41-6.04,9.49-15.06,14.28-26.22,14.62-9.98.3-19.97.02-29.95.22-4.01.08-7.44-.99-7.48-5.26-.04-4.39,3.34-6.08,7.58-5.89.82.04,1.65-.1,2.91-.19ZM346.17,87.16c4.44,0,8.25-.04,12.06,0,9.61.11,17.35-3.59,21.32-12.44,4.14-9.24,4-18.68-2.54-27.12-8.21-10.6-19.7-8.52-30.84-8.22v47.79Z"/>
        <path d="M75.67,87.02v-47.59c-1.62-.11-2.92-.27-4.21-.26-3.39.02-5.33-1.56-5.57-4.98-.26-3.78,2.14-5.39,5.36-5.94,1.78-.31,3.66-.07,5.49-.07,15.83,0,31.66-.17,47.48.18,2.47.05,5.85,1.86,7.11,3.91,2.27,3.7-1.3,7.48-6.73,7.52-11.16.07-22.32.03-33.48.05-.95,0-1.9.18-3.08.31v16.02c8.29,0,16.4-.04,24.52.03,1.61.01,3.69-.07,4.71.84,1.55,1.38,3.66,4.1,3.18,5.34-.78,2-3.4,4.49-5.36,4.6-8.79.49-17.62.21-26.89.21v19.59c1.96.38,4.05.65,6.06,1.2,3.18.86,4.41,3.48,3.4,6.16-.64,1.71-3.02,3.8-4.73,3.91-7.13.47-14.31.28-21.48.29-2.98,0-5.16-1.07-5.57-4.42-.46-3.69,1.52-5.64,4.76-6.48,1.56-.4,3.25-.28,5.03-.41Z"/>
        <path d="M269.8,54.14c21.3,0,39.39,17.71,39.1,38.08-.05,3.85-1.51,6.32-5.23,6.42-3.9.1-5.7-2.21-5.87-6.38-.61-15.3-13.12-27.23-28.09-27.13-14.88.1-27.34,12.02-27.75,26.95-.12,4.25-2.16,6.56-5.79,6.53-3.77-.03-5.41-2.61-5.38-6.77.19-20.52,17.8-37.69,39.01-37.69Z"/>
        <path d="M173.98,54.14c21.23.02,39.33,17.93,38.93,38.31-.08,3.93-1.76,6.2-5.42,6.22-3.61.02-5.48-2.1-5.67-6.08-.74-15.65-12.79-27.41-27.79-27.46-15.11-.05-27.48,11.77-28.09,27.17-.16,3.91-1.88,6.32-5.44,6.36-3.75.04-5.67-2.24-5.71-6.48-.16-20.62,17.67-38.05,39.19-38.04Z"/>
        <path class="cls-1" d="M415.07,104.92l.99-2.42-13.33-33.56c-.82-1.93-1.23-3.33-1.23-4.2,0-.93.24-1.79.71-2.58.48-.79,1.13-1.43,1.96-1.9s1.7-.71,2.6-.71c1.56,0,2.74.5,3.53,1.49s1.49,2.41,2.1,4.26l9.16,26.66,8.69-24.79c.69-2.01,1.31-3.58,1.87-4.72.55-1.14,1.14-1.9,1.76-2.3.62-.4,1.5-.59,2.64-.59.82,0,1.61.22,2.36.65s1.33,1.03,1.75,1.77c.41.74.62,1.52.62,2.34-.11.5-.28,1.22-.52,2.14-.24.93-.53,1.86-.87,2.82l-14.12,36.97c-1.22,3.25-2.41,5.8-3.57,7.66-1.16,1.85-2.7,3.27-4.62,4.26-1.92.99-4.5,1.49-7.75,1.49s-5.55-.34-7.14-1.03c-1.59-.69-2.38-1.94-2.38-3.77,0-1.24.38-2.2,1.13-2.88s1.87-1.01,3.35-1.01c.58,0,1.15.08,1.71.24.69.16,1.28.24,1.79.24,1.24,0,2.22-.19,2.94-.56.71-.37,1.35-1.01,1.92-1.92.57-.91,1.22-2.25,1.96-4.03Z"/>
        <g>
          <path class="cls-1" d="M416.33,39.57l-9.14,10.22h9.78c.79,0,1.39.19,1.79.56.4.37.6.85.6,1.44s-.2,1.02-.59,1.37c-.4.35-1,.53-1.8.53h-13.53c-.95,0-1.66-.21-2.13-.62-.47-.41-.7-.98-.7-1.7,0-.43.16-.86.49-1.29.33-.43,1.01-1.23,2.05-2.39,1.1-1.22,2.09-2.32,2.99-3.31.9-.99,1.73-1.91,2.5-2.77s1.4-1.59,1.91-2.18.91-1.11,1.22-1.54h-7.42c-1.02,0-1.8-.09-2.32-.27s-.79-.66-.79-1.44c0-.57.2-1.03.59-1.37.4-.34.96-.51,1.69-.51h11.46c1.06,0,1.87.16,2.44.47.57.31.85.87.85,1.67,0,.27-.05.55-.17.83-.11.29-.23.52-.37.7-.13.18-.32.41-.55.67-.23.26-.52.58-.86.94Z"/>
          <path class="cls-1" d="M434.89,51.32c-1.21.94-2.37,1.64-3.5,2.11-1.13.47-2.39.7-3.79.7-1.28,0-2.4-.25-3.37-.76-.97-.51-1.71-1.19-2.24-2.06-.52-.87-.79-1.8-.79-2.82,0-1.36.43-2.53,1.3-3.49s2.05-1.61,3.57-1.94c.32-.07,1.1-.24,2.36-.49,1.25-.26,2.33-.49,3.23-.7s1.87-.47,2.92-.78c-.06-1.32-.33-2.28-.79-2.9-.47-.62-1.44-.92-2.92-.92-1.27,0-2.22.18-2.86.53s-1.19.88-1.65,1.59c-.46.71-.78,1.17-.97,1.4-.19.23-.59.34-1.22.34-.56,0-1.04-.18-1.45-.54-.41-.36-.61-.82-.61-1.38,0-.88.31-1.73.93-2.56.62-.83,1.59-1.51,2.91-2.05s2.96-.8,4.92-.8c2.19,0,3.92.26,5.17.78,1.25.52,2.14,1.34,2.66,2.46.52,1.12.78,2.61.78,4.46,0,1.17,0,2.16,0,2.98,0,.82-.02,1.72-.03,2.72,0,.94.16,1.92.47,2.93.31,1.02.47,1.67.47,1.97,0,.51-.24.98-.72,1.4s-1.03.63-1.64.63c-.51,0-1.02-.24-1.52-.72-.5-.48-1.03-1.18-1.59-2.09ZM434.56,44.1c-.73.27-1.79.55-3.19.85s-2.36.52-2.9.66-1.05.41-1.54.82-.73.98-.73,1.71.29,1.4.86,1.93c.57.53,1.32.8,2.25.8.99,0,1.9-.22,2.73-.65s1.45-.99,1.84-1.67c.45-.76.68-2,.68-3.73v-.71Z"/>
        </g>
      </g>
    </g>
  </g>
</svg>