<?xml version="1.0" encoding="UTF-8"?>
<svg id="Layer_1" xmlns="http://www.w3.org/2000/svg" version="1.1" viewBox="0 0 1384.13 651.57">
  <!-- Generator: Adobe Illustrator 29.3.1, SVG Export Plug-In . SVG Version: 2.1.0 Build 151)  -->
  <g>
    <path d="M488.21,217.07c5.36,3.82,8.04,10.47,8.04,19.96v2.32c-.1,4.23-.8,10.5-2.09,18.8-1.29,8.3-2.71,13.38-4.25,15.24-1.03,1.24-1.96,1.86-2.79,1.86-1.03,0-1.86-.77-2.48-2.32-2.58-5.78-7.17-10.55-13.77-14.31-6.6-3.76-14.88-6.55-24.84-8.36-9.95-1.8-21.27-2.71-33.96-2.71-25.89,0-56.01,3.46-90.36,10.37,2.99,3.51,4.49,7.58,4.49,12.22,0,5.06-1.49,10.42-4.49,16.09-2.99,5.67-7.43,12.9-13.31,21.66-3.71,5.47-6.4,9.54-8.05,12.22-.52.93-1.29,2.22-2.32,3.87,16.5-6.5,38.32-11.04,65.45-13.62,1.65-.1,3.2-.15,4.64-.15,16.5,0,25.22,8.46,26.15,25.38v1.08c0,3.82-.34,8.12-1.01,12.92-.67,4.8-1.68,8.18-3.02,10.14-.93,1.45-1.91,2.17-2.94,2.17-.93,0-1.75-.67-2.48-2.01-2.27-6.5-7.17-11.29-14.7-14.39-7.53-3.1-16.76-4.64-27.7-4.64-16.4,0-33.22,3.04-50.44,9.13,5.05,14.96,8.56,31.83,10.52,50.6.62,6.09.93,11.97.93,17.64,0,16.51-2.63,30.38-7.89,41.62-5.26,11.24-12.17,19.6-20.73,25.07-8.56,5.47-17.69,8.2-27.39,8.2-8.98,0-17.43-2.3-25.38-6.89-7.94-4.59-14.36-11.22-19.26-19.88s-7.35-18.88-7.35-30.64c0-13.93,3.61-28.88,10.83-44.87,7.84-17.33,17.51-34.63,29.01-51.91,11.5-17.28,24.37-35.56,38.61-54.85,2.89-3.92,4.95-6.7,6.19-8.35.21-.21.46-.51.77-.93,2.99-4.23,5.05-7.17,6.19-8.82-8.67,2.48-15.96,5.83-21.9,10.06-5.93,4.23-9.88,9.85-11.84,16.87-.21.72-.41,1.76-.62,3.1-.31,1.75-.67,3.07-1.08,3.95-.41.88-1.14,1.32-2.17,1.32-.93,0-2.12-.41-3.56-1.24-8.25-4.64-13.72-10.93-16.4-18.88-1.24-3.92-1.86-7.58-1.86-10.99,0-7.84,3.07-13.93,9.21-18.26,6.14-4.33,14.52-7.89,25.14-10.68,31.98-8.46,67.9-15.52,107.77-21.2,39.87-5.67,72.65-8.56,98.33-8.67,8.05,0,14.75,1.91,20.12,5.73ZM282.26,414.04c0-13.41-2.32-29.86-6.96-49.36-5.16,10.52-9.47,20.55-12.92,30.1s-5.8,18.49-7.04,26.85c-.62,3.3-.93,6.34-.93,9.13,0,5.67,1.11,10.06,3.33,13.15,2.22,3.09,4.92,4.64,8.12,4.64,3.82,0,7.3-2.17,10.44-6.5,3.15-4.33,5.03-10.47,5.65-18.41.21-3.09.31-6.29.31-9.59Z"/>
    <path d="M594.97,370.87c2.58-1.55,5.26-2.32,8.04-2.32,3.4,0,6.32,1.11,8.74,3.33,2.42,2.22,3.63,5.18,3.63,8.9,0,3.51-1.24,7.33-3.71,11.45-6.71,11.76-15.81,20.99-27.31,27.7-11.5,6.71-23.08,10.06-34.74,10.06-3.72,0-7.27-.36-10.68-1.08-7.94,12.48-17.3,23.57-28.08,33.27-10.78,9.7-22.2,17.25-34.27,22.67-12.07,5.42-23.83,8.12-35.28,8.12s-21.58-2.71-30.09-8.12c-8.51-5.42-15.06-13-19.65-22.75-4.59-9.75-6.89-20.86-6.89-33.34,0-11.65,2.01-23.83,6.04-36.52,7.43-21.76,18.31-40.69,32.65-56.79,7.01-8.15,13.41-12.22,19.19-12.22,3.5,0,6.27,1.5,8.28,4.49,2.01,2.99,3.02,7.07,3.02,12.22,0,1.03-.05,2.06-.15,3.1,1.24-14.24,6.39-26.36,15.47-36.36,9.08-10,21.3-15.01,36.67-15.01,13.1,0,24.01,2.92,32.73,8.74,8.72,5.83,15.16,13.59,19.34,23.29,4.18,9.7,6.27,20.37,6.27,32.03,0,8.35-1.06,16.76-3.17,25.22-2.12,8.46-5.18,16.35-9.21,23.67,6.4-1.13,12.76-3.89,19.11-8.28,6.34-4.39,12.25-10.6,17.72-18.65,1.65-2.99,3.76-5.26,6.34-6.81ZM493.78,419.61c-12.17-6.4-21.72-15.45-28.63-27.16-6.91-11.71-10.78-24.16-11.61-37.37-8.77,10.42-14.65,20.32-17.64,29.71-1.75,5.67-2.63,11.6-2.63,17.79,0,9.28,2.17,17.12,6.5,23.52s11.04,9.59,20.11,9.59c11.55,0,22.85-5.36,33.89-16.09ZM518.53,367.62c0-7.01-1.47-12.25-4.41-15.7-2.94-3.45-6.58-5.18-10.91-5.18-4.64,0-8.82,1.73-12.53,5.18-3.71,3.46-5.57,7.81-5.57,13.08,0,4.23,1.49,8.69,4.49,13.38,2.99,4.7,7.68,9.36,14.08,14,3.2,2.27,5.42,3.4,6.66,3.4,1.03,0,1.83-.56,2.4-1.7.57-1.13,1.37-3.25,2.4-6.34.31-1.03.56-1.86.77-2.48,1.75-6.6,2.63-12.48,2.63-17.64Z"/>
    <path d="M784.05,370.87c2.58-1.55,5.26-2.32,8.04-2.32,3.4,0,6.32,1.11,8.74,3.33,2.42,2.22,3.63,5.18,3.63,8.9,0,3.51-1.24,7.33-3.71,11.45-6.71,11.76-15.81,20.99-27.31,27.7-11.5,6.71-23.08,10.06-34.74,10.06-3.72,0-7.27-.36-10.68-1.08-7.94,12.48-17.3,23.57-28.08,33.27-10.78,9.7-22.2,17.25-34.27,22.67-12.07,5.42-23.83,8.12-35.28,8.12s-21.58-2.71-30.09-8.12c-8.51-5.42-15.06-13-19.65-22.75-4.59-9.75-6.89-20.86-6.89-33.34,0-11.65,2.01-23.83,6.04-36.52,7.43-21.76,18.31-40.69,32.65-56.79,7.01-8.15,13.41-12.22,19.19-12.22,3.5,0,6.27,1.5,8.28,4.49,2.01,2.99,3.02,7.07,3.02,12.22,0,1.03-.05,2.06-.15,3.1,1.24-14.24,6.39-26.36,15.47-36.36,9.08-10,21.3-15.01,36.67-15.01,13.1,0,24.01,2.92,32.73,8.74,8.72,5.83,15.16,13.59,19.34,23.29,4.18,9.7,6.27,20.37,6.27,32.03,0,8.35-1.06,16.76-3.17,25.22-2.12,8.46-5.18,16.35-9.21,23.67,6.4-1.13,12.76-3.89,19.11-8.28,6.34-4.39,12.25-10.6,17.72-18.65,1.65-2.99,3.76-5.26,6.34-6.81ZM682.86,419.61c-12.17-6.4-21.72-15.45-28.63-27.16-6.91-11.71-10.78-24.16-11.61-37.37-8.77,10.42-14.65,20.32-17.64,29.71-1.75,5.67-2.63,11.6-2.63,17.79,0,9.28,2.17,17.12,6.5,23.52,4.33,6.4,11.04,9.59,20.11,9.59,11.55,0,22.85-5.36,33.89-16.09ZM707.62,367.62c0-7.01-1.47-12.25-4.41-15.7-2.94-3.45-6.58-5.18-10.91-5.18-4.64,0-8.82,1.73-12.53,5.18-3.71,3.46-5.57,7.81-5.57,13.08,0,4.23,1.49,8.69,4.49,13.38,2.99,4.7,7.68,9.36,14.08,14,3.2,2.27,5.42,3.4,6.66,3.4,1.03,0,1.83-.56,2.4-1.7.57-1.13,1.37-3.25,2.4-6.34.31-1.03.56-1.86.77-2.48,1.75-6.6,2.63-12.48,2.63-17.64Z"/>
    <path d="M968.18,371.18c2.58-1.55,5.26-2.32,8.05-2.32,3.4,0,6.34,1.11,8.82,3.33,2.48,2.22,3.71,5.13,3.71,8.74s-1.29,7.48-3.87,11.61c-11.66,19.19-23.52,36.23-35.59,51.14-12.07,14.91-24.24,26.87-36.52,35.9-12.28,9.03-23.98,13.59-35.12,13.69h-.46c-8.57,0-16.82-2.55-24.76-7.66-7.94-5.1-13.87-12.82-17.79-23.13-6.29,10.11-13.23,17.72-20.81,22.82-7.58,5.1-15.09,7.66-22.51,7.66h-1.08c-12.28-.51-21.35-4.49-27.23-11.91-5.88-7.43-8.82-17.38-8.82-29.86,0-14.54,3.53-31,10.6-49.36,7.06-18.36,16.5-35.97,28.32-52.84,11.81-16.87,24.63-30.58,38.45-41.16,13.82-10.57,27.13-15.86,39.92-15.86,8.97,0,16.35,1.34,22.13,4.02,5.78,2.68,10.78,6.5,15.01,11.45.82-1.75,2.11-4.43,3.87-8.05,5.98-12.69,10.65-23.6,14-32.73,3.35-9.13,5.03-17.97,5.03-26.54,0-2.99-.26-5.83-.78-8.51-.31-1.86-1.29-4.49-2.94-7.89-1.65-3.2-2.48-5.47-2.48-6.81,0-2.58,2.42-4.23,7.27-4.95,3.09-.41,6.13-.62,9.13-.62,11.55,0,21.56,2.99,30.02,8.98,11.66,7.12,17.49,17.28,17.49,30.48,0,8.77-2.35,18.75-7.04,29.94-4.69,11.19-10.55,22.51-17.56,33.96-7.02,11.45-16.61,26.3-28.78,44.56-16.92,25.48-29.04,44.62-36.36,57.41-2.89,5.36-4.33,9.75-4.33,13.15,0,2.27.62,3.97,1.86,5.11s2.94,1.7,5.11,1.7c2.89,0,6.19-.93,9.9-2.79,3.71-1.86,7.37-4.43,10.98-7.74,15.27-15.27,28.21-31.31,38.84-48.12,1.65-2.99,3.76-5.26,6.34-6.81ZM885.56,343.48c0-2.99-.62-5.23-1.86-6.73-1.24-1.49-2.94-2.24-5.11-2.24-3.3,0-7.3,1.65-11.99,4.95-4.7,3.3-9.52,8.05-14.47,14.24-5.67,6.91-10.62,13.82-14.85,20.73-4.23,6.91-9.23,15.73-15.01,26.46-.31.52-.52.93-.62,1.24-5.16,9.39-7.74,16.97-7.74,22.75,0,3.09.75,5.44,2.24,7.04,1.49,1.6,3.58,2.4,6.27,2.4,4.74,0,10.31-2.48,16.71-7.43,6.39-4.95,12.02-11.65,16.87-20.11,2.16-3.82,5.42-9.54,9.75-17.17,4.33-7.74,7.58-13.51,9.75-17.33,6.7-12.17,10.06-21.76,10.06-28.78Z"/>
    <path d="M1168.09,370.87c2.58-1.55,5.26-2.32,8.04-2.32,3.4,0,6.34,1.11,8.82,3.33,2.48,2.22,3.72,5.13,3.72,8.74s-1.29,7.48-3.87,11.61c-7.43,12.17-20.06,30.9-37.91,56.17-17.85,25.27-37.47,51.37-58.88,78.29-21.41,26.92-41.93,49.82-61.58,68.7-19.65,18.88-34.94,28.32-45.88,28.32-7.33,0-12.53-2.63-15.63-7.89-3.09-5.26-4.64-12.07-4.64-20.43,0-5.67.56-11.42,1.7-17.25,1.13-5.83,2.42-10.65,3.87-14.47,10.62-27.23,27.13-60.91,49.51-101.04-8.05,9.08-16.04,16.4-23.98,21.97-7.94,5.57-15.22,8.35-21.82,8.35h-.77c-13.31,0-22.95-3.25-28.93-9.75-5.98-6.5-8.97-15.11-8.97-25.84,0-12.38,3.35-26.1,10.06-41.16,2.89-6.6,6.14-13.31,9.75-20.11,3.61-6.81,8.2-15.16,13.77-25.07,9.18-16.4,15.96-29.4,20.35-38.99,4.38-9.59,6.57-17.84,6.57-24.76,0-3.5-.67-6.55-2.01-9.13-.62-1.13-.93-2.17-.93-3.09,0-2.27,1.75-3.4,5.26-3.4,7.22,0,15.01,3.1,23.37,9.28,13,9.28,19.5,20.22,19.5,32.8,0,8.46-2.42,17.05-7.27,25.76-4.85,8.72-11.91,19.32-21.2,31.8-6.71,9.18-11.35,15.83-13.93,19.96-4.33,7.12-6.5,13-6.5,17.64,0,2.89.82,5.08,2.48,6.58,1.65,1.5,3.92,2.24,6.81,2.24,5.16,0,11.45-2.16,18.88-6.5,7.43-4.33,15.29-10.88,23.59-19.65,8.3-8.77,16.07-19.39,23.29-31.87,3.4-5.78,7.12-12.38,11.14-19.81,1.55-2.79,3.87-6.91,6.96-12.38,6.29-10.83,10.88-19.39,13.77-25.68,2.89-6.29,4.33-11.81,4.33-16.56,0-2.68-.52-5.05-1.55-7.12-.62-1.13-.93-2.17-.93-3.09,0-2.27,1.75-3.4,5.26-3.4,7.22,0,15.01,3.1,23.36,9.28,13.1,9.39,19.65,20.37,19.65,32.96,0,8.35-2.3,16.69-6.89,24.99-4.59,8.3-11.06,18.13-19.42,29.48-1.65,2.16-2.84,3.77-3.56,4.8-20.43,27.54-43.74,65.09-69.94,112.64-8.25,14.75-12.38,24.86-12.38,30.33,0,2.27.82,3.4,2.48,3.4,2.06,0,5.36-2.06,9.9-6.19,4.54-4.13,9.9-10.16,16.09-18.1,34.45-43.84,68.03-89.69,100.73-137.56,1.65-2.99,3.76-5.26,6.34-6.81Z"/>
  </g>
  <path d="M898.51,95.6v-27.3c0-2.42-10.65-8.04-14.03-6.68-83.63,5.95-177.6-7.61-260,0-6.25.58-9.94,1.56-14.16,6.55l-2.03,129.78c-1.44,4.97-9.96.81-12.52,3.45-1.35,1.39-.62,6.36-2.72,8.61-1.27,1.36-8.97,2.96-8.97,5.14v44.24l-1.52.04c1.4,3.52,1.73,7.5,1.07,11.32,11.47-.5,23.09-1.33,33.43-.11,10.04,1.19,10.66,8.48,18.69,9.55l105.22-.18c12.88,25.73,37.58,30.67,56.73,7.52,1.63-1.97,2.45-6.68,3.18-7.14,2.8-1.79,19.43.92,26.17-1.14,7.7-2.35,8.59-10.45,9.32-10.45h62.13V121.96h29.18c6.11,0,33.26-17.6,42.04-19.14l.33-7.22h-71.54ZM631.16,67.36h240.99v1.88h-240.99v-1.88ZM877.8,76.77l-3.79,6.56-234.42,1.01c-5-.17-10.1-2.89-12.2-7.57h250.4ZM858.97,199.16h-6.57s-.95-13.19-.95-13.19h-92.25l-.95,13.19h-6.57s0-13.19,0-13.19h-92.25c.53,6.41.87,16.22-7.54,12.23l.02-12.24h-24.48s2.73-5.04,2.73-5.04c3.09.8,6.23,1.64,9.49,1.48,70.77-3.43,145.2.42,216.6-.09,6.72-.05,18.81-3.09,24.82-.64,2.79,1.13,2.88.58,2.39,4.29h-24.48s0,13.2,0,13.2ZM648.11,120.07c11.3.73,23.67-1,34.83,0,1.96.18,5.65.69,6.3,3.02,2.37,10.2-2.15,28.16.26,37.19.54,2.03,5.67,0,3.8,4.98l-5.45.11-.21,9.3-8.41-5.68-24.45-.08-1.03,5.77-5.64.02c-.09-5.3,1.99-8.77-3.79-10.38l.1-2.75c.94-.06,2.76.14,3.18-.45,2.61-3.73-.89-33.86.51-41.03ZM693.29,133.25v-5.65h75.31c1.69,1.68-3.05,21.37,2.82,24.48h42.36c1.95,4.93-3.36,3.01-3.8,4.98-.67,3.01.41,6.87.02,10.07-6.72,1.56-2.88-7.39-3.76-11.29h-112.96v-3.77h71.54v-18.83h-71.54ZM864.62,169.02v-69.66h-42.36c-.38,0-2.12,2.87-4.71,1.86-.62-.52,2.41-3.75,2.82-3.75h46.13v73.43h-46.13c-.42,0-3.44-3.22-2.82-3.75,2.59-1.01,4.33,1.86,4.71,1.86h42.36ZM825.09,165.26v-62.13h33.89c3.55,2.26,1.59,51.4,1.18,59.38l-2.12,2.76h-32.95ZM614.22,73.95c.11-.78,1.85-5.39,3.75-4.7-3.78,12.19,11.41,12.45,13.15,21.69l-.24,85.37c-10.25.58-3.59,11.11-16.66,7.78v-110.14ZM771.33,293.67c-12.24,0-22.15-9.92-22.15-22.15s9.92-22.15,22.15-22.15,22.15,9.92,22.15,22.15-9.92,22.15-22.15,22.15ZM890.98,261.28h-89.43c-13.24-27.27-47.14-27.63-60.25,0h-122.38l-2.82-2.82v-66.84h7.52s0,16.94,0,16.94h263.58v-16.94s3.77,0,3.77,0v69.66ZM892.86,184.09h-5.64c1.18-6.49-2.15-6.14-7.3-7.78l-.2-87.26c1.31-6.87,12.84-9.65,9.39-19.81,1.21-.14,3.75,2.5,3.75,2.82v112.02ZM928.2,115.1c-11-1.52-31.08,8.74-27.8-10.09h47.07l-19.27,10.09Z"/>
</svg>